# xmcd CD database file
#
# Track frame offsets:
#	150
#	16657
#	34599
#	56917
#	74666
#	90675
#	105177
#	122664
#	138798
#	153274
#	169099
#
# Disc length: 2396 seconds
#
# Revision: 0
# Processed by: cddbd v1.5.2PL0 Copyright (c) Steve Scherf et al.
# Submitted via: CDex 1.79
#
DISCID=84095a0b
DTITLE=Vintage Vegas - Let's Swop 
DYEAR=2015
DGENRE=Jazz
TTITLE0=Only Man In The World 
TTITLE1=This Love 
TTITLE2=Here I Am 
TTITLE3=Nel Blu Dipinto Di Blu (Volare) 
TTITLE4=Don't You Worry Child 
TTITLE5=I Need To Know 
TTITLE6=Garota De Ipanema 
TTITLE7=For Once In My Life (feat. Nica) 
TTITLE8=Hangover (The Swing Version) 
TTITLE9=Fly Me To The Moon (In Other Words) 
TTITLE10=Danke Schoen 
EXTD=YEAR: 2015
EXTT0=
EXTT1=
EXTT2=
EXTT3=
EXTT4=
EXTT5=
EXTT6=
EXTT7=
EXTT8=
EXTT9=
EXTT10=
PLAYORDER=
